<svg width="64" height="24" viewBox="0 0 64 24" fill="none" xmlns="http://www.w3.org/2000/svg">
<path fill-rule="evenodd" clip-rule="evenodd" d="M9.93912 2.51227C11.4986 2.33478 13.073 2.33478 14.6324 2.51227L16.2278 2.69385C16.4563 2.71986 16.6602 2.84927 16.7811 3.04493C16.9019 3.2406 16.9263 3.4809 16.8472 3.69686L14.6447 9.71343H17.0001C17.2461 9.71343 17.4765 9.8341 17.6166 10.0364C17.7567 10.2386 17.7887 10.4967 17.7022 10.7271L17.5118 11.2343C16.1906 14.7533 14.3226 18.0419 11.9768 20.9789L11.5861 21.4681C11.3873 21.717 11.0528 21.8132 10.7521 21.7078C10.4514 21.6025 10.2501 21.3186 10.2501 21V13.8476H8.42862C8.0401 13.8476 7.7159 13.5509 7.68155 13.1639L7.55893 11.7821C7.35145 9.44416 7.35145 7.09245 7.55893 4.75452L7.68155 3.37274C7.71305 3.01788 7.98983 2.73414 8.3438 2.69385L9.93912 2.51227ZM14.4628 4.00265C13.0161 3.83799 11.5555 3.83799 10.1088 4.00265L9.12158 4.11501L9.05306 4.88711C8.85341 7.13682 8.85341 9.39979 9.05306 11.6495L9.11501 12.3476H11.0001C11.4143 12.3476 11.7501 12.6834 11.7501 13.0976V18.8023C13.4522 16.46 14.8512 13.9102 15.9128 11.2134H13.5715C13.3266 11.2134 13.0971 11.0938 12.9568 10.893C12.8164 10.6923 12.783 10.4356 12.8672 10.2056L15.1109 4.07642L14.4628 4.00265Z" fill="#5A6DAC"/>
<path d="M28.6 20L25 9.02L24.4 7.04V5.84H28.2L31.02 16.36H31.42L34.2 5.84H37.96V7.04L37.36 9.02L33.78 20H28.6ZM42.7841 20.2C41.1574 20.2 39.8974 19.8133 39.0041 19.04C38.1107 18.2667 37.6641 17.0133 37.6641 15.28C37.6641 13.5333 38.1107 12.28 39.0041 11.52C39.8974 10.7467 41.1574 10.36 42.7841 10.36C44.4507 10.36 45.7107 10.7467 46.5641 11.52C47.4307 12.28 47.8641 13.5333 47.8641 15.28C47.8641 17.0133 47.4307 18.2667 46.5641 19.04C45.7107 19.8133 44.4507 20.2 42.7841 20.2ZM42.7841 17.6C43.3307 17.6 43.7107 17.4 43.9241 17C44.1374 16.5867 44.2441 16.0133 44.2441 15.28C44.2441 14.5333 44.1374 13.96 43.9241 13.56C43.7107 13.16 43.3307 12.96 42.7841 12.96C42.2241 12.96 41.8307 13.16 41.6041 13.56C41.3907 13.96 41.2841 14.5333 41.2841 15.28C41.2841 16.0133 41.3907 16.5867 41.6041 17C41.8307 17.4 42.2241 17.6 42.7841 17.6ZM49.5755 20L49.5555 9.04L49.1555 7.04L49.5755 5.84H53.1755V20H49.5755ZM59.0311 20.2C58.1244 20.2 57.3978 19.9333 56.8511 19.4C56.3044 18.8667 56.0311 18.1933 56.0311 17.38V13.02H54.5711V11.12L55.8311 10.14L57.2511 7.66H59.6111V10.56H62.4111V13.16H59.6111V17.44L62.4111 17.42V19.6C62.4111 19.6 62.2511 19.6533 61.9311 19.76C61.6244 19.8533 61.2178 19.9467 60.7111 20.04C60.2044 20.1467 59.6444 20.2 59.0311 20.2Z" fill="#5A6DAC"/>
</svg>
